<svg xmlns="http://www.w3.org/2000/svg" viewBox="0 0 320 320" role="img" aria-labelledby="title desc">
  <title id="title">Stock player portrait 06</title>
  <desc id="desc">Abstract portrait illustration with lilac background and charcoal sportswear.</desc>
  <defs>
    <linearGradient id="bg" x1="0%" x2="100%" y1="0%" y2="100%">
      <stop offset="0%" stop-color="#e8e3f2" />
      <stop offset="100%" stop-color="#b0a2ca" />
    </linearGradient>
  </defs>
  <rect width="320" height="320" rx="42" fill="url(#bg)" />
  <circle cx="160" cy="118" r="58" fill="#f1c9ab" />
  <path d="M102 252c15-43 50-74 91-74 43 0 78 31 91 74v26H102z" fill="#2a2f3f" />
  <path d="M108 112c4-33 27-56 59-56s56 20 59 56c-13-11-33-18-59-18s-45 7-59 18z" fill="#261c1f" />
  <path d="M140 136c7 9 15 14 23 14 9 0 19-5 28-14" fill="none" stroke="#8e5439" stroke-linecap="round" stroke-width="8" />
</svg>
