<svg xmlns="http://www.w3.org/2000/svg" viewBox="0 0 320 320" role="img" aria-labelledby="title desc">
  <title id="title">Stock player portrait 04</title>
  <desc id="desc">Abstract portrait illustration with coral background and navy sportswear.</desc>
  <defs>
    <linearGradient id="bg" x1="0%" x2="100%" y1="0%" y2="100%">
      <stop offset="0%" stop-color="#f6ded4" />
      <stop offset="100%" stop-color="#d8907d" />
    </linearGradient>
  </defs>
  <rect width="320" height="320" rx="42" fill="url(#bg)" />
  <circle cx="160" cy="118" r="58" fill="#f1c8a8" />
  <path d="M100 252c15-45 52-74 92-74s77 29 92 74v26H100z" fill="#203047" />
  <path d="M108 114c2-34 26-58 60-58 35 0 58 22 61 58-17-12-36-18-61-18-22 0-42 6-60 18z" fill="#38211c" />
  <path d="M138 136c7 8 15 13 23 13 10 0 20-5 29-13" fill="none" stroke="#8a4f34" stroke-linecap="round" stroke-width="8" />
</svg>
