<svg xmlns="http://www.w3.org/2000/svg" viewBox="0 0 320 320" role="img" aria-labelledby="title desc">
  <title id="title">Stock player portrait 03</title>
  <desc id="desc">Abstract portrait illustration with blue background and light sportswear.</desc>
  <defs>
    <linearGradient id="bg" x1="0%" x2="100%" y1="0%" y2="100%">
      <stop offset="0%" stop-color="#dde9f8" />
      <stop offset="100%" stop-color="#8caed6" />
    </linearGradient>
  </defs>
  <rect width="320" height="320" rx="42" fill="url(#bg)" />
  <circle cx="160" cy="118" r="58" fill="#efc5a4" />
  <path d="M98 252c14-44 50-74 92-74s78 30 92 74v26H98z" fill="#f4f5f8" />
  <path d="M112 108c4-31 27-52 58-52 32 0 54 20 58 52-13-12-31-18-58-18s-45 6-58 18z" fill="#251b1c" />
  <path d="M138 134c8 9 16 14 24 14 10 0 20-5 30-14" fill="none" stroke="#8e5135" stroke-linecap="round" stroke-width="8" />
</svg>
