<svg width="640" height="800" viewBox="0 0 640 800" fill="none" xmlns="http://www.w3.org/2000/svg">
  <rect width="640" height="800" rx="44" fill="#141414" />
  <rect width="640" height="800" rx="44" fill="url(#background)" />
  <circle cx="488" cy="126" r="120" fill="#F3C84B" fill-opacity=".24" />
  <ellipse cx="320" cy="746" rx="286" ry="178" fill="#0C0C0C" fill-opacity=".6" />
  <circle cx="322" cy="250" r="112" fill="#F4D67C" />
  <path d="M189 734c18-171 74-258 133-258 64 0 121 87 139 258H189Z" fill="#F4D67C" />
  <path d="M224 214c19-74 80-125 153-125 76 0 141 56 156 136-32 36-75 62-124 72-83 16-153-11-185-83Z" fill="#1C1C1C" />
  <path d="M214 689c27-94 73-144 108-144 37 0 83 50 110 144H214Z" fill="#D1B86B" fill-opacity=".55" />
  <defs>
    <linearGradient id="background" x1="90" y1="46" x2="560" y2="770" gradientUnits="userSpaceOnUse">
      <stop stop-color="#3B2A16" />
      <stop offset="1" stop-color="#18110B" />
    </linearGradient>
  </defs>
</svg>
