<svg width="640" height="800" viewBox="0 0 640 800" fill="none" xmlns="http://www.w3.org/2000/svg">
  <rect width="640" height="800" rx="44" fill="#281321" />
  <rect width="640" height="800" rx="44" fill="url(#background)" />
  <circle cx="492" cy="132" r="136" fill="#F06BB5" fill-opacity=".22" />
  <ellipse cx="320" cy="748" rx="292" ry="182" fill="#12080E" fill-opacity=".68" />
  <circle cx="320" cy="244" r="108" fill="#E8BA94" />
  <path d="M178 734c22-177 76-262 142-262 61 0 118 85 142 262H178Z" fill="#E8BA94" />
  <path d="M216 197c42-77 120-128 199-84 47 26 75 70 75 125-66-31-166-17-229-3-27-12-39-20-45-38Z" fill="#3A1730" />
  <path d="M211 682c21-92 64-138 109-138 50 0 94 46 113 138H211Z" fill="#BF9475" fill-opacity=".5" />
  <defs>
    <linearGradient id="background" x1="92" y1="54" x2="554" y2="774" gradientUnits="userSpaceOnUse">
      <stop stop-color="#4D1D40" />
      <stop offset="1" stop-color="#1C0E17" />
    </linearGradient>
  </defs>
</svg>
