<svg width="640" height="800" viewBox="0 0 640 800" fill="none" xmlns="http://www.w3.org/2000/svg">
  <rect width="640" height="800" rx="44" fill="#23120E" />
  <rect width="640" height="800" rx="44" fill="url(#background)" />
  <circle cx="502" cy="166" r="136" fill="#FF7848" fill-opacity=".2" />
  <ellipse cx="320" cy="748" rx="292" ry="182" fill="#170A08" fill-opacity=".66" />
  <circle cx="316" cy="246" r="108" fill="#E6B18B" />
  <path d="M182 734c18-174 73-262 134-262 67 0 122 88 141 262H182Z" fill="#E6B18B" />
  <path d="M230 187c55-51 102-72 148-66 63 9 120 61 124 137-58-25-138-8-192 14-34-15-52-36-80-85Z" fill="#331B15" />
  <path d="M207 680c19-88 61-134 109-134 52 0 95 46 116 134H207Z" fill="#B98867" fill-opacity=".5" />
  <defs>
    <linearGradient id="background" x1="92" y1="52" x2="548" y2="774" gradientUnits="userSpaceOnUse">
      <stop stop-color="#4B2217" />
      <stop offset="1" stop-color="#1E100C" />
    </linearGradient>
  </defs>
</svg>
